<?xml version="1.0" standalone="no"?>
<!DOCTYPE svg PUBLIC "-//W3C//DTD SVG 20010904//EN"
 "http://www.w3.org/TR/2001/REC-SVG-20010904/DTD/svg10.dtd">
<svg version="1.0" xmlns="http://www.w3.org/2000/svg"
 width="1501.000000pt" height="601.000000pt" viewBox="0 0 1501.000000 601.000000"
 preserveAspectRatio="xMidYMid meet">

<g transform="translate(0.000000,601.000000) scale(0.100000,-0.100000)"
fill="#000000" stroke="none">
<path d="M10880 4181 c-6 -12 -10 -128 -10 -305 0 -157 -2 -286 -4 -286 -2 0
-37 16 -77 35 -288 136 -641 96 -899 -101 -308 -235 -418 -645 -269 -1005 60
-146 181 -292 317 -383 255 -169 598 -193 864 -60 26 13 51 24 55 24 5 0 14
-13 20 -30 l11 -30 239 0 c173 0 242 3 251 12 16 16 18 2099 2 2129 -10 18
-24 19 -250 19 -226 0 -240 -1 -250 -19z m-228 -973 c78 -36 142 -98 180 -176
28 -57 33 -78 36 -163 5 -113 -11 -173 -65 -256 -127 -193 -411 -212 -583 -40
-208 208 -122 556 159 649 81 26 197 20 273 -14z"/>
<path d="M1543 4182 c-16 -10 -815 -2133 -809 -2149 4 -10 66 -13 294 -13
l289 0 58 178 c31 97 62 183 67 190 8 9 87 12 356 10 l345 -3 62 -185 62 -185
290 -3 c227 -2 292 0 295 10 5 12 -779 2104 -801 2141 -10 15 -33 17 -254 17
-133 0 -247 -4 -254 -8z m358 -1051 c67 -199 86 -268 78 -278 -18 -20 -367
-19 -375 2 -3 8 33 134 80 280 80 244 89 266 108 263 18 -3 34 -40 109 -267z"/>
<path d="M3532 3699 c-88 -10 -237 -59 -312 -101 -277 -157 -440 -428 -443
-738 -3 -239 81 -447 249 -614 301 -302 779 -340 1129 -91 69 49 168 150 210
213 24 37 26 45 14 57 -23 22 -360 215 -377 215 -8 0 -39 -26 -67 -58 -98
-107 -210 -146 -344 -118 -254 53 -397 322 -290 543 28 57 108 145 162 176
116 68 257 75 365 17 58 -31 104 -72 144 -128 9 -13 22 -22 30 -20 36 8 377
214 381 229 3 10 -16 45 -47 86 -179 235 -503 369 -804 332z"/>
<path d="M5182 3699 c-88 -10 -237 -59 -312 -101 -277 -157 -440 -428 -443
-738 -3 -239 81 -447 249 -614 301 -302 779 -340 1129 -91 69 49 168 150 210
213 24 37 26 45 14 57 -23 22 -360 215 -377 215 -8 0 -39 -26 -67 -58 -98
-107 -210 -146 -344 -118 -254 53 -397 322 -290 543 28 57 108 145 162 176
116 68 257 75 365 17 58 -31 104 -72 144 -128 9 -13 22 -22 30 -20 36 8 377
214 381 229 3 10 -16 45 -47 86 -179 235 -503 369 -804 332z"/>
<path d="M6855 3699 c-308 -32 -569 -215 -700 -490 -57 -121 -77 -215 -78
-359 -1 -139 20 -239 72 -355 117 -258 375 -451 661 -496 92 -14 261 -6 350
16 36 9 117 42 180 73 106 51 123 64 215 156 100 101 175 209 175 252 0 16 -8
24 -27 28 -58 12 -419 76 -431 76 -6 0 -33 -20 -60 -45 -26 -25 -76 -60 -112
-78 -59 -29 -73 -32 -160 -32 -102 0 -150 15 -233 72 -47 32 -111 118 -103
138 5 13 83 15 588 15 350 0 589 4 598 10 23 14 21 292 -2 380 -26 97 -109
256 -173 333 -181 216 -477 336 -760 306z m266 -448 c67 -26 133 -80 159 -132
27 -51 26 -77 -2 -84 -13 -3 -162 -4 -333 -3 -291 3 -310 4 -313 21 -10 49 46
126 122 171 101 59 252 70 367 27z"/>
<path d="M13235 3699 c-308 -32 -569 -215 -700 -490 -57 -121 -77 -215 -78
-359 -1 -139 20 -239 72 -355 117 -258 375 -451 661 -496 92 -14 261 -6 350
16 36 9 117 42 180 73 106 51 123 64 215 156 100 101 175 209 175 252 0 16 -8
24 -27 28 -58 12 -419 76 -431 76 -6 0 -33 -20 -60 -45 -26 -25 -76 -60 -112
-78 -59 -29 -73 -32 -160 -32 -102 0 -150 15 -233 72 -47 32 -111 118 -103
138 5 13 83 15 588 15 350 0 589 4 598 10 23 14 21 292 -2 380 -26 97 -109
256 -173 333 -181 216 -477 336 -760 306z m266 -448 c67 -26 133 -80 159 -132
27 -51 26 -77 -2 -84 -13 -3 -162 -4 -333 -3 -291 3 -310 4 -313 21 -10 49 46
126 122 171 101 59 252 70 367 27z"/>
<path d="M8615 3676 c-39 -12 -91 -34 -116 -49 -25 -15 -51 -27 -57 -27 -6 0
-12 17 -14 38 l-3 37 -244 3 c-189 2 -246 -1 -253 -10 -10 -17 -10 -1599 0
-1616 7 -9 67 -12 268 -10 l259 3 6 525 c4 359 9 536 17 561 24 71 93 109 198
109 75 0 125 -19 153 -59 44 -64 45 -72 51 -616 l5 -520 265 0 265 0 0 565 c0
509 -2 571 -18 630 -44 164 -155 305 -295 378 -162 84 -341 106 -487 58z"/>
<path d="M11576 3664 c-9 -24 -7 -1597 2 -1612 7 -9 67 -12 268 -10 l259 3 5
530 c4 400 9 537 18 560 37 84 117 122 242 113 38 -3 73 -2 79 1 7 5 12 80 13
217 l3 209 -37 3 c-62 5 -204 -24 -274 -57 -69 -32 -71 -32 -76 24 l-3 30
-246 3 c-218 2 -247 1 -253 -14z"/>
</g>
</svg>
