<?xml version="1.0" standalone="no"?>
<!DOCTYPE svg PUBLIC "-//W3C//DTD SVG 20010904//EN"
 "http://www.w3.org/TR/2001/REC-SVG-20010904/DTD/svg10.dtd">
<svg version="1.0" xmlns="http://www.w3.org/2000/svg"
 width="500.000000pt" height="500.000000pt" viewBox="0 0 500.000000 500.000000"
 preserveAspectRatio="xMidYMid meet">

<g transform="translate(0.000000,500.000000) scale(0.100000,-0.100000)"
fill="#000000" stroke="none">
<path d="M310 3835 l305 -305 276 0 c317 0 357 -7 468 -81 79 -53 125 -107
169 -197 30 -63 36 -86 40 -167 4 -76 1 -106 -17 -163 -41 -135 -134 -242
-267 -305 l-69 -32 -302 -3 -303 -3 0 300 0 301 -305 0 -305 0 0 -699 0 -700
302 -264 303 -264 3 358 2 358 323 3 c310 4 326 5 419 30 398 108 691 397 796
786 23 87 26 115 25 267 0 152 -3 181 -26 270 -111 416 -444 720 -876 800 -69
12 -184 15 -675 15 l-591 0 305 -305z"/>
<path d="M3575 3893 c-482 -62 -871 -381 -1025 -841 l-30 -90 0 -261 0 -261
955 0 c572 0 955 -4 955 -9 0 -21 -44 -109 -85 -170 -83 -126 -219 -237 -353
-288 -132 -50 -170 -52 -844 -53 l-628 0 0 -235 0 -235 644 0 c594 0 653 2
758 20 135 23 222 52 343 113 342 172 570 471 653 851 18 87 24 367 9 439 l-8
37 -960 0 -960 0 6 23 c14 45 76 153 120 209 63 80 166 163 260 208 160 77
118 74 903 77 l702 4 0 234 0 235 -692 -1 c-381 -1 -706 -4 -723 -6z"/>
</g>
</svg>
